<svg width="9" height="12" viewBox="0 0 9 12" fill="none" xmlns="http://www.w3.org/2000/svg">
<path d="M0.409058 11.9999V0.363525H4.47724C5.28785 0.363525 5.95641 0.503677 6.48292 0.78398C7.00944 1.0605 7.40148 1.4336 7.65906 1.9033C7.91663 2.36921 8.04542 2.88625 8.04542 3.45443C8.04542 3.95443 7.95641 4.36731 7.77838 4.69307C7.60413 5.01883 7.37307 5.2764 7.08519 5.4658C6.8011 5.65519 6.49239 5.79534 6.15906 5.88625V5.99989C6.51512 6.02262 6.87307 6.14762 7.23292 6.37489C7.59277 6.60216 7.89391 6.92792 8.13633 7.35216C8.37875 7.7764 8.49997 8.29534 8.49997 8.90898C8.49997 9.49231 8.36739 10.0169 8.10224 10.4828C7.83709 10.9488 7.41853 11.3181 6.84656 11.5908C6.27459 11.8635 5.53027 11.9999 4.6136 11.9999H0.409058ZM1.81815 10.7499H4.6136C5.53406 10.7499 6.18747 10.5719 6.57383 10.2158C6.96398 9.85595 7.15906 9.42034 7.15906 8.90898C7.15906 8.51504 7.05868 8.1514 6.85792 7.81807C6.65716 7.48095 6.37118 7.21201 5.99997 7.01125C5.62875 6.80671 5.18936 6.70443 4.68179 6.70443H1.81815V10.7499ZM1.81815 5.47716H4.43179C4.85603 5.47716 5.2386 5.39383 5.57951 5.22716C5.92421 5.0605 6.19694 4.82565 6.39769 4.52262C6.60224 4.21959 6.70451 3.86353 6.70451 3.45443C6.70451 2.94307 6.52648 2.50936 6.17042 2.1533C5.81436 1.79345 5.24997 1.61353 4.47724 1.61353H1.81815V5.47716Z" fill="white"/>
</svg>
